<?xml version="1.0" encoding="utf-8"?>
<!-- Generator: Adobe Illustrator 13.0.0, SVG Export Plug-In . SVG Version: 6.00 Build 14948)  -->
<!DOCTYPE svg PUBLIC "-//W3C//DTD SVG 1.1//EN" "http://www.w3.org/Graphics/SVG/1.1/DTD/svg11.dtd">
<svg version="1.1" id="Vrstva_1" xmlns="http://www.w3.org/2000/svg" xmlns:xlink="http://www.w3.org/1999/xlink" x="0px" y="0px"
	 width="416.357px" height="116.534px" viewBox="0 0 416.357 116.534" enable-background="new 0 0 416.357 116.534"
	 xml:space="preserve">
<g>
	<polygon fill="#1A171B" points="32.491,19.712 44.978,19.712 27.139,67.189 18.265,67.189 0.426,19.712 12.913,19.712 
		22.701,49.488 32.491,19.712 	"/>
	<path fill="#1A171B" d="M77.487,32.932c-0.61-0.61-1.357-1.067-2.241-1.372c-0.884-0.305-1.906-0.458-3.065-0.458
		c-2.531,0-4.49,0.816-5.877,2.447s-2.081,3.895-2.081,6.792v26.849H50.774V19.712h13.449v6.432
		c1.148-1.964,2.528-3.551,4.139-4.762c2.088-1.569,4.383-2.354,6.885-2.354c1.981,0,3.773,0.313,5.374,0.938
		c1.601,0.625,2.996,1.547,4.186,2.767L77.487,32.932L77.487,32.932z"/>
	<path fill="#1A171B" d="M115.409,48.666h-11.436c-1.89,0-3.308,0.374-4.254,1.121c-0.945,0.747-1.418,1.882-1.418,3.406
		c0,1.556,0.595,2.707,1.784,3.454c1.189,0.747,2.989,1.121,5.398,1.121c3.354,0,5.847-0.381,7.479-1.143
		c1.631-0.762,2.447-1.951,2.447-3.567V48.666L115.409,48.666z M102.19,67.876c-5.093,0-8.897-1.212-11.413-3.637
		c-2.516-2.424-3.773-6.106-3.773-11.047c0-4.695,1.41-8.217,4.231-10.565s7.052-3.522,12.693-3.522h11.481v-2.013
		c0-2.195-0.732-3.888-2.195-5.077c-1.464-1.189-3.538-1.783-6.221-1.783c-1.769,0-3.522,0.29-5.261,0.869
		c-1.738,0.579-3.278,1.387-4.62,2.424l-7.777-7.639c1.892-2.165,4.392-3.85,7.502-5.054c3.111-1.204,6.557-1.806,10.338-1.806
		c4.147,0,7.685,0.693,10.612,2.081c2.928,1.387,5.161,3.399,6.701,6.037c1.54,2.638,2.31,5.817,2.31,9.537v30.508h-11.39v-4.463
		c-0.365,0.569-0.83,1.097-1.395,1.581c-1.388,1.189-3.125,2.081-5.214,2.676S104.508,67.876,102.19,67.876L102.19,67.876z"/>
	<path fill="#1A171B" d="M134.019,19.712h4.895V5.9h12.532v13.812h5.81v10.704h-5.81v21.313c0,1.159,0.229,2.051,0.687,2.676
		c0.458,0.625,1.129,0.938,2.013,0.938h3.111v12.075h-6.312c-4.147,0-7.189-1.06-9.125-3.18c-1.937-2.119-2.905-5.252-2.905-9.399
		V30.416h-4.895V19.712L134.019,19.712z"/>
	<path fill="#FF8000" d="M213.685,55.892l22.825-30.004c1.036-1.341,1.837-2.721,2.401-4.139c0.564-1.417,0.847-2.736,0.847-3.956
		V17.7c0-1.798-0.579-3.185-1.738-4.161c-1.158-0.976-2.806-1.464-4.94-1.464c-2.074,0-3.751,0.679-5.032,2.036
		c-1.28,1.356-2.058,3.285-2.332,5.785v0.047h-12.854v-0.047c0.274-4.147,1.272-7.714,2.995-10.703
		c1.724-2.988,4.049-5.267,6.977-6.837C225.76,0.785,229.145,0,232.988,0c4.146,0,7.691,0.678,10.635,2.035
		c2.942,1.357,5.184,3.331,6.724,5.923c1.539,2.591,2.31,5.717,2.31,9.376v0.047c0,3.018-0.526,6.013-1.578,8.987
		c-1.052,2.973-2.523,5.664-4.414,8.073l-16.375,20.673h22.733v12.075h-39.338V55.892L213.685,55.892z"/>
	<path fill="#1A171B" d="M192.879,48.666h-11.436c-1.89,0-3.308,0.374-4.254,1.121c-0.945,0.747-1.418,1.882-1.418,3.406
		c0,1.556,0.595,2.707,1.784,3.454c1.189,0.747,2.989,1.121,5.398,1.121c3.354,0,5.847-0.381,7.479-1.143
		c1.632-0.762,2.447-1.951,2.447-3.567V48.666L192.879,48.666z M179.66,67.876c-5.093,0-8.897-1.212-11.413-3.637
		c-2.516-2.424-3.773-6.106-3.773-11.047c0-4.695,1.41-8.217,4.231-10.565s7.052-3.522,12.693-3.522h11.481v-2.013
		c0-2.195-0.732-3.888-2.196-5.077c-1.463-1.189-3.537-1.783-6.221-1.783c-1.769,0-3.523,0.29-5.261,0.869s-3.278,1.387-4.62,2.424
		l-7.776-7.639c1.891-2.165,4.392-3.85,7.502-5.054s6.557-1.806,10.338-1.806c4.147,0,7.685,0.693,10.612,2.081
		c2.928,1.387,5.162,3.399,6.701,6.037c1.54,2.638,2.31,5.817,2.31,9.537v30.508h-11.39v-4.463c-0.365,0.569-0.83,1.097-1.395,1.581
		c-1.387,1.189-3.125,2.081-5.214,2.676S181.978,67.876,179.66,67.876L179.66,67.876z"/>
	<polygon fill="#1A171B" points="311.841,54.656 324.373,54.656 324.373,67.189 311.841,67.189 311.841,54.656 	"/>
	<polygon fill="#FF8000" points="287.479,28.083 300.013,28.083 300.013,44.915 305.227,44.915 305.227,56.989 300.013,56.989 
		300.013,67.234 287.479,67.234 287.479,56.989 260.629,56.989 260.629,45.463 281.121,0.732 295.301,0.732 275.357,44.915 
		287.479,44.915 287.479,28.083 	"/>
	<path fill="#1A171B" d="M353.848,67.876c-4.513,0-8.378-0.861-11.596-2.585c-3.217-1.723-5.664-4.231-7.341-7.524
		c-1.678-3.293-2.516-7.257-2.516-11.892v-5.076c0-4.604,0.838-8.531,2.516-11.778c1.677-3.248,4.124-5.725,7.341-7.433
		c3.218-1.707,7.083-2.561,11.596-2.561c2.592,0,5.039,0.297,7.342,0.891c2.302,0.595,4.368,1.456,6.198,2.584
		c1.829,1.129,3.354,2.5,4.574,4.117l-8.097,7.867c-1.159-1.067-2.516-1.898-4.071-2.492c-1.555-0.594-3.187-0.892-4.894-0.892
		c-3.172,0-5.627,0.846-7.365,2.538s-2.607,4.078-2.607,7.159v5.076c0,3.171,0.869,5.619,2.607,7.341
		c1.738,1.724,4.193,2.585,7.365,2.585c1.738,0,3.385-0.32,4.939-0.961c1.555-0.64,2.896-1.555,4.025-2.745l8.097,8.325
		c-1.25,1.586-2.79,2.935-4.62,4.048c-1.829,1.112-3.888,1.959-6.176,2.538C358.879,67.586,356.439,67.876,353.848,67.876
		L353.848,67.876z"/>
	<polygon fill="#1A171B" points="413.445,30.323 392.449,55.801 414.681,55.801 414.681,67.189 377.492,67.189 377.492,56.395 
		399.083,31.102 378.132,31.102 378.132,19.712 413.445,19.712 413.445,30.323 	"/>
	<line fill="none" stroke="#FF8000" stroke-width="2" stroke-miterlimit="3.8637" x1="0" y1="80.215" x2="414.417" y2="80.215"/>
	<path fill="#1A171B" d="M7.916,110.82c-1.349,0-2.504-0.258-3.466-0.773c-0.961-0.515-1.693-1.265-2.194-2.249
		c-0.501-0.984-0.752-2.169-0.752-3.555v-1.518c0-1.376,0.251-2.55,0.752-3.521c0.501-0.971,1.233-1.711,2.194-2.222
		c0.961-0.51,2.117-0.765,3.466-0.765c0.775,0,1.506,0.088,2.194,0.266s1.306,0.436,1.853,0.772c0.547,0.338,1.002,0.748,1.367,1.23
		l-2.42,2.352c-0.346-0.318-0.752-0.567-1.217-0.745s-0.952-0.266-1.463-0.266c-0.948,0-1.682,0.252-2.201,0.758
		s-0.779,1.22-0.779,2.14v1.518c0,0.948,0.26,1.68,0.779,2.194c0.52,0.516,1.253,0.773,2.201,0.773c0.52,0,1.012-0.097,1.477-0.288
		s0.866-0.465,1.203-0.82l2.42,2.488c-0.374,0.475-0.834,0.878-1.381,1.21c-0.547,0.333-1.162,0.586-1.846,0.759
		C9.42,110.733,8.691,110.82,7.916,110.82L7.916,110.82z"/>
	<path fill-rule="evenodd" clip-rule="evenodd" fill="#1A171B" d="M15.281,90.735h3.746v19.879h-3.746V90.735L15.281,90.735z
		 M23.484,102.016c0-0.693-0.198-1.231-0.595-1.613c-0.396-0.383-0.959-0.574-1.688-0.574c-0.693,0-1.229,0.193-1.606,0.58
		c-0.378,0.388-0.567,0.933-0.567,1.634l-0.287-3.145c0.428-0.893,0.941-1.563,1.538-2.01c0.597-0.446,1.347-0.669,2.249-0.669
		c1.495,0,2.652,0.503,3.473,1.51c0.82,1.008,1.23,2.432,1.23,4.272v8.613h-3.746V102.016L23.484,102.016z"/>
	<path fill-rule="evenodd" clip-rule="evenodd" fill="#1A171B" d="M51.906,96.423h4.02v14.191h-4.02V96.423L51.906,96.423z
		 M59.89,100.374c-0.183-0.182-0.406-0.318-0.67-0.41c-0.264-0.091-0.57-0.136-0.916-0.136c-0.757,0-1.342,0.243-1.757,0.73
		c-0.415,0.488-0.622,1.165-0.622,2.03l-0.288-3.691c0.392-0.848,0.9-1.506,1.525-1.976c0.624-0.469,1.31-0.703,2.058-0.703
		c0.592,0,1.128,0.093,1.606,0.279c0.479,0.188,0.896,0.463,1.251,0.827L59.89,100.374L59.89,100.374z"/>
	<path fill-rule="evenodd" clip-rule="evenodd" fill="#1A171B" d="M71.112,101.618c0-0.656-0.218-1.162-0.656-1.518
		s-1.058-0.533-1.859-0.533c-0.529,0-1.053,0.087-1.573,0.26c-0.519,0.173-0.979,0.415-1.38,0.725l-2.325-2.283
		c0.565-0.647,1.313-1.15,2.242-1.511c0.93-0.359,1.96-0.539,3.09-0.539c1.239,0,2.297,0.207,3.172,0.621
		c0.875,0.415,1.542,1.017,2.002,1.805c0.46,0.789,0.69,1.739,0.69,2.851v9.119h-3.404V101.618L71.112,101.618z M67.161,110.82
		c-1.522,0-2.659-0.363-3.411-1.088s-1.128-1.825-1.128-3.302c0-1.403,0.421-2.456,1.265-3.158c0.843-0.701,2.107-1.053,3.793-1.053
		h3.555l0.192,2.858h-3.733c-0.565,0-0.989,0.111-1.271,0.334c-0.283,0.224-0.424,0.563-0.424,1.019c0,0.465,0.178,0.81,0.533,1.032
		c0.355,0.224,0.894,0.335,1.614,0.335c1.002,0,1.748-0.114,2.235-0.342c0.488-0.228,0.731-0.583,0.731-1.065l0.287,2.063
		c-0.054,0.511-0.289,0.943-0.704,1.299c-0.415,0.355-0.935,0.622-1.559,0.8C68.512,110.73,67.854,110.82,67.161,110.82
		L67.161,110.82z M66.669,92.554l3.91-4.854l2.639,2.215l-4.17,4.594L66.669,92.554L66.669,92.554z"/>
	<path fill="#1A171B" d="M28.849,96.423h3.527l3.21,8.297l2.847-8.297h3.527l-6.316,17.515c-0.237,0.646-0.531,1.159-0.882,1.537
		c-0.351,0.379-0.784,0.649-1.299,0.813c-0.515,0.164-1.151,0.246-1.907,0.246h-0.834v-3.637h0.834c0.401,0,0.736-0.089,1.005-0.267
		s0.472-0.467,0.609-0.868l0.756-2.203L28.849,96.423L28.849,96.423z"/>
	<path fill="#1A171B" d="M42.232,96.423h1.463v-4.129h3.746v4.129h1.736v3.2l-1.736-0.001v6.371c0,0.347,0.068,0.613,0.205,0.8
		c0.137,0.188,0.337,0.28,0.602,0.28h0.93v3.609h-1.886c-1.24,0-2.149-0.316-2.728-0.95c-0.579-0.633-0.869-1.57-0.869-2.81v-7.301
		l-1.463,0.001V96.423L42.232,96.423z"/>
	<path fill-rule="evenodd" clip-rule="evenodd" fill="#1A171B" d="M91.784,90.735h3.746v19.879h-3.746V90.735L91.784,90.735z
		 M88.489,110.82c-1.003,0-1.862-0.242-2.578-0.726c-0.715-0.482-1.26-1.183-1.633-2.099s-0.561-2.021-0.561-3.315v-2.27
		c0-1.303,0.187-2.42,0.561-3.35s0.918-1.636,1.633-2.119c0.716-0.482,1.575-0.724,2.578-0.724c0.756,0,1.447,0.225,2.071,0.676
		s1.128,1.092,1.51,1.921l-0.287,3.146c0-0.483-0.082-0.895-0.246-1.231s-0.403-0.595-0.718-0.772s-0.695-0.267-1.142-0.267
		c-0.702,0-1.247,0.239-1.634,0.718c-0.388,0.479-0.581,1.15-0.581,2.017v2.256c0,0.848,0.193,1.505,0.581,1.969
		c0.387,0.465,0.932,0.697,1.634,0.697c0.446,0,0.827-0.086,1.142-0.26c0.314-0.173,0.554-0.424,0.718-0.752
		s0.246-0.724,0.246-1.189l0.191,3.24c-0.292,0.775-0.738,1.374-1.34,1.798S89.318,110.82,88.489,110.82L88.489,110.82z"/>
	<path fill-rule="evenodd" clip-rule="evenodd" fill="#1A171B" d="M104.39,110.82c-1.294,0-2.4-0.242-3.316-0.726
		c-0.916-0.482-1.613-1.187-2.091-2.112c-0.479-0.925-0.718-2.039-0.718-3.342v-2.312c0-1.285,0.239-2.386,0.718-3.302
		s1.175-1.613,2.091-2.092s2.021-0.717,3.316-0.717c1.294,0,2.399,0.238,3.315,0.717s1.613,1.176,2.092,2.092
		c0.479,0.916,0.718,2.017,0.718,3.302v2.352c0,1.295-0.239,2.399-0.718,3.315c-0.479,0.916-1.176,1.616-2.092,2.099
		C106.789,110.578,105.684,110.82,104.39,110.82L104.39,110.82z M104.375,107.211c0.757,0,1.345-0.222,1.764-0.664
		c0.419-0.441,0.629-1.064,0.629-1.866v-2.352c0-0.793-0.209-1.408-0.629-1.845c-0.419-0.438-1.007-0.656-1.764-0.656
		c-0.747,0-1.328,0.218-1.743,0.656c-0.415,0.437-0.622,1.052-0.622,1.845v2.352c0,0.802,0.205,1.425,0.616,1.866
		C103.036,106.989,103.619,107.211,104.375,107.211L104.375,107.211z"/>
	<path fill-rule="evenodd" clip-rule="evenodd" fill="#1A171B" d="M129.896,102.425c0-0.829-0.198-1.47-0.595-1.921
		s-0.959-0.676-1.688-0.676c-0.72,0-1.274,0.216-1.661,0.648c-0.388,0.433-0.581,1.046-0.581,1.839l-0.697-3.281
		c0.446-0.902,1.027-1.597,1.743-2.085c0.715-0.487,1.511-0.73,2.386-0.73c1.021,0,1.894,0.241,2.618,0.724
		c0.724,0.483,1.276,1.189,1.654,2.119c0.378,0.93,0.567,2.047,0.567,3.35v8.203h-3.746V102.425L129.896,102.425z M113.353,96.423
		h3.746v14.191h-3.746V96.423L113.353,96.423z M121.624,102.425c0-0.829-0.205-1.47-0.615-1.921
		c-0.41-0.451-0.989-0.676-1.737-0.676c-0.692,0-1.228,0.193-1.606,0.58c-0.378,0.388-0.567,0.933-0.567,1.634l-0.288-3.145
		c0.419-0.874,0.944-1.54,1.573-1.996c0.628-0.455,1.367-0.683,2.215-0.683c1.002,0,1.861,0.241,2.577,0.724
		c0.715,0.483,1.26,1.189,1.634,2.119c0.374,0.93,0.561,2.047,0.561,3.35v8.203h-3.747V102.425L121.624,102.425z"/>
	<path fill-rule="evenodd" clip-rule="evenodd" fill="#1A171B" d="M144.56,101.618c0-0.656-0.219-1.162-0.657-1.518
		s-1.057-0.533-1.859-0.533c-0.529,0-1.053,0.087-1.572,0.26s-0.979,0.415-1.381,0.725l-2.324-2.283
		c0.565-0.647,1.313-1.15,2.242-1.511c0.93-0.359,1.96-0.539,3.09-0.539c1.24,0,2.297,0.207,3.172,0.621
		c0.875,0.415,1.543,1.017,2.003,1.805c0.46,0.789,0.69,1.739,0.69,2.851v9.119h-3.404V101.618L144.56,101.618z M140.608,110.82
		c-1.522,0-2.66-0.363-3.411-1.088c-0.752-0.725-1.128-1.825-1.128-3.302c0-1.403,0.421-2.456,1.264-3.158
		c0.843-0.701,2.108-1.053,3.794-1.053h3.555l0.192,2.858h-3.733c-0.565,0-0.989,0.111-1.271,0.334
		c-0.283,0.224-0.424,0.563-0.424,1.019c0,0.465,0.178,0.81,0.533,1.032c0.355,0.224,0.894,0.335,1.614,0.335
		c1.002,0,1.748-0.114,2.235-0.342c0.488-0.228,0.732-0.583,0.732-1.065l0.287,2.063c-0.055,0.511-0.289,0.943-0.704,1.299
		c-0.415,0.355-0.935,0.622-1.559,0.8C141.959,110.73,141.301,110.82,140.608,110.82L140.608,110.82z M140.116,92.554l3.91-4.854
		l2.639,2.215l-4.17,4.594L140.116,92.554L140.116,92.554z"/>
	<path fill="#1A171B" d="M157.105,110.82c-1.349,0-2.504-0.258-3.466-0.773c-0.962-0.515-1.693-1.265-2.194-2.249
		c-0.501-0.984-0.752-2.169-0.752-3.555v-1.518c0-1.376,0.25-2.55,0.752-3.521c0.501-0.971,1.232-1.711,2.194-2.222
		c0.961-0.51,2.117-0.765,3.466-0.765c0.774,0,1.506,0.088,2.194,0.266c0.688,0.178,1.305,0.436,1.853,0.772
		c0.547,0.338,1.002,0.748,1.367,1.23l-2.42,2.352c-0.347-0.318-0.752-0.567-1.217-0.745c-0.464-0.178-0.952-0.266-1.462-0.266
		c-0.948,0-1.682,0.252-2.201,0.758c-0.52,0.506-0.779,1.22-0.779,2.14v1.518c0,0.948,0.259,1.68,0.779,2.194
		c0.52,0.516,1.253,0.773,2.201,0.773c0.519,0,1.011-0.097,1.476-0.288s0.866-0.465,1.204-0.82l2.42,2.488
		c-0.374,0.475-0.834,0.878-1.381,1.21c-0.547,0.333-1.162,0.586-1.846,0.759C158.608,110.733,157.879,110.82,157.105,110.82
		L157.105,110.82z"/>
	<path fill-rule="evenodd" clip-rule="evenodd" fill="#1A171B" d="M164.47,96.423h3.746v14.191h-3.746V96.423L164.47,96.423z
		 M172.673,102.016c0-0.693-0.199-1.231-0.595-1.613c-0.396-0.383-0.959-0.574-1.688-0.574c-0.692,0-1.228,0.193-1.606,0.58
		c-0.378,0.388-0.567,0.933-0.567,1.634l-0.288-3.145c0.429-0.893,0.941-1.563,1.539-2.01c0.597-0.446,1.347-0.669,2.249-0.669
		c1.495,0,2.652,0.503,3.473,1.51c0.82,1.008,1.23,2.432,1.23,4.272v8.613h-3.746V102.016L172.673,102.016z"/>
	<path fill-rule="evenodd" clip-rule="evenodd" fill="#1A171B" d="M185.256,110.82c-1.294,0-2.399-0.242-3.315-0.726
		c-0.916-0.482-1.613-1.187-2.092-2.112c-0.479-0.925-0.718-2.039-0.718-3.342v-2.312c0-1.285,0.239-2.386,0.718-3.302
		s1.176-1.613,2.092-2.092s2.021-0.717,3.315-0.717s2.399,0.238,3.315,0.717c0.916,0.479,1.614,1.176,2.092,2.092
		c0.479,0.916,0.718,2.017,0.718,3.302v2.352c0,1.295-0.239,2.399-0.718,3.315c-0.478,0.916-1.176,1.616-2.092,2.099
		C187.656,110.578,186.551,110.82,185.256,110.82L185.256,110.82z M185.243,107.211c0.756,0,1.344-0.222,1.764-0.664
		c0.419-0.441,0.629-1.064,0.629-1.866v-2.352c0-0.793-0.21-1.408-0.629-1.845c-0.419-0.438-1.007-0.656-1.764-0.656
		c-0.748,0-1.329,0.218-1.743,0.656c-0.415,0.437-0.622,1.052-0.622,1.845v2.352c0,0.802,0.205,1.425,0.615,1.866
		C183.903,106.989,184.486,107.211,185.243,107.211L185.243,107.211z"/>
	<path fill="#1A171B" d="M199.647,110.82c-0.848,0-1.672-0.076-2.475-0.227s-1.554-0.371-2.256-0.663s-1.321-0.643-1.859-1.053
		l2.311-2.885c0.684,0.438,1.399,0.774,2.146,1.012c0.748,0.237,1.458,0.355,2.133,0.355c0.875,0,1.554-0.098,2.037-0.294
		c0.483-0.195,0.725-0.467,0.725-0.813c0-0.319-0.105-0.561-0.314-0.725s-0.479-0.28-0.807-0.349s-0.789-0.13-1.381-0.185
		c-0.164-0.018-0.33-0.036-0.499-0.055c-0.169-0.018-0.34-0.036-0.513-0.055c-0.037-0.009-0.075-0.016-0.116-0.021
		c-0.041-0.004-0.08-0.007-0.116-0.007c-1.058-0.137-1.905-0.305-2.543-0.506c-0.638-0.2-1.178-0.585-1.62-1.155
		c-0.442-0.569-0.663-1.396-0.663-2.481c0-0.947,0.228-1.759,0.684-2.434c0.456-0.674,1.117-1.187,1.982-1.538
		c0.866-0.351,1.914-0.525,3.145-0.525c0.72,0,1.438,0.072,2.153,0.218c0.715,0.146,1.401,0.356,2.058,0.629
		c0.656,0.273,1.263,0.602,1.819,0.984l-2.229,2.721c-0.62-0.346-1.267-0.615-1.941-0.807s-1.321-0.287-1.941-0.287
		c-0.756,0-1.344,0.087-1.764,0.26s-0.629,0.415-0.629,0.725c0,0.237,0.111,0.422,0.335,0.554c0.223,0.133,0.501,0.229,0.834,0.287
		c0.333,0.06,0.818,0.126,1.456,0.198c0.082,0.01,0.164,0.019,0.246,0.027c0.082,0.01,0.164,0.019,0.246,0.027
		c0.037,0.01,0.078,0.014,0.123,0.014s0.086,0.005,0.123,0.014c1.103,0.128,2.001,0.292,2.693,0.492
		c0.693,0.201,1.283,0.602,1.771,1.203s0.731,1.486,0.731,2.652c0,0.984-0.237,1.828-0.71,2.529
		c-0.474,0.702-1.167,1.237-2.079,1.606C202.031,110.635,200.933,110.82,199.647,110.82L199.647,110.82z"/>
	<polygon fill="#1A171B" points="232.963,101.687 232.963,105.296 223.229,105.296 223.229,101.687 232.963,101.687 	"/>
	<polygon fill="#1A171B" points="250.688,96.423 254.421,96.423 249.089,110.614 246.436,110.614 241.104,96.423 244.837,96.423 
		247.762,105.323 250.688,96.423 	"/>
	<path fill="#1A171B" d="M207.083,96.423h1.462v-4.129h3.746v4.129h1.736v3.2l-1.736-0.001v6.371c0,0.347,0.068,0.613,0.205,0.8
		c0.137,0.188,0.338,0.28,0.602,0.28h0.93v3.609h-1.887c-1.239,0-2.148-0.316-2.728-0.95c-0.579-0.633-0.868-1.57-0.868-2.81v-7.301
		l-1.462,0.001V96.423L207.083,96.423z"/>
	<path fill-rule="evenodd" clip-rule="evenodd" fill="#1A171B" d="M256.04,96.423h4.021v14.191h-4.021V96.423L256.04,96.423z
		 M264.025,100.374c-0.183-0.182-0.406-0.318-0.67-0.41c-0.265-0.091-0.57-0.136-0.917-0.136c-0.756,0-1.342,0.243-1.756,0.73
		c-0.415,0.488-0.622,1.165-0.622,2.03l-0.288-3.691c0.393-0.848,0.9-1.506,1.524-1.976c0.625-0.469,1.311-0.703,2.059-0.703
		c0.592,0,1.127,0.093,1.605,0.279c0.479,0.188,0.896,0.463,1.251,0.827L264.025,100.374L264.025,100.374z"/>
	<path fill-rule="evenodd" clip-rule="evenodd" fill="#1A171B" d="M275.247,101.618c0-0.656-0.219-1.162-0.656-1.518
		s-1.058-0.533-1.859-0.533c-0.529,0-1.053,0.087-1.572,0.26s-0.98,0.415-1.381,0.725l-2.324-2.283
		c0.564-0.647,1.313-1.15,2.242-1.511c0.93-0.359,1.959-0.539,3.09-0.539c1.239,0,2.297,0.207,3.172,0.621
		c0.875,0.415,1.542,1.017,2.003,1.805c0.46,0.789,0.69,1.739,0.69,2.851v9.119h-3.404V101.618L275.247,101.618z M271.296,110.82
		c-1.522,0-2.659-0.363-3.411-1.088s-1.128-1.825-1.128-3.302c0-1.403,0.421-2.456,1.265-3.158c0.843-0.701,2.107-1.053,3.794-1.053
		h3.555l0.191,2.858h-3.732c-0.565,0-0.989,0.111-1.271,0.334c-0.283,0.224-0.424,0.563-0.424,1.019c0,0.465,0.178,0.81,0.533,1.032
		c0.355,0.224,0.894,0.335,1.613,0.335c1.003,0,1.747-0.114,2.235-0.342c0.487-0.228,0.731-0.583,0.731-1.065l0.287,2.063
		c-0.055,0.511-0.289,0.943-0.704,1.299s-0.935,0.622-1.559,0.8S271.988,110.82,271.296,110.82L271.296,110.82z"/>
	<path fill-rule="evenodd" clip-rule="evenodd" fill="#1A171B" d="M298.177,101.618c0-0.656-0.219-1.162-0.656-1.518
		s-1.058-0.533-1.859-0.533c-0.528,0-1.053,0.087-1.572,0.26s-0.979,0.415-1.381,0.725l-2.324-2.283
		c0.565-0.647,1.313-1.15,2.242-1.511c0.93-0.359,1.96-0.539,3.09-0.539c1.24,0,2.297,0.207,3.172,0.621
		c0.875,0.415,1.543,1.017,2.003,1.805c0.46,0.789,0.69,1.739,0.69,2.851v9.119h-3.404V101.618L298.177,101.618z M294.226,110.82
		c-1.521,0-2.659-0.363-3.411-1.088s-1.128-1.825-1.128-3.302c0-1.403,0.422-2.456,1.265-3.158c0.844-0.701,2.107-1.053,3.794-1.053
		h3.555l0.191,2.858h-3.732c-0.565,0-0.989,0.111-1.271,0.334c-0.282,0.224-0.424,0.563-0.424,1.019c0,0.465,0.178,0.81,0.533,1.032
		c0.355,0.224,0.894,0.335,1.613,0.335c1.003,0,1.748-0.114,2.235-0.342c0.488-0.228,0.731-0.583,0.731-1.065l0.287,2.063
		c-0.055,0.511-0.289,0.943-0.704,1.299c-0.414,0.355-0.934,0.622-1.559,0.8C295.577,110.73,294.919,110.82,294.226,110.82
		L294.226,110.82z"/>
	<polygon fill="#1A171B" points="320.927,101.687 320.927,105.296 311.192,105.296 311.192,101.687 320.927,101.687 	"/>
	<path fill="#1A171B" d="M280.696,96.423h1.464v-4.129h3.745v4.129h1.736v3.2l-1.736-0.001v6.371c0,0.347,0.069,0.613,0.205,0.8
		c0.137,0.188,0.338,0.28,0.603,0.28h0.929v3.609h-1.886c-1.24,0-2.149-0.316-2.729-0.95c-0.578-0.633-0.867-1.57-0.867-2.81v-7.301
		l-1.464,0.001V96.423L280.696,96.423z"/>
	<path fill-rule="evenodd" clip-rule="evenodd" fill="#1A171B" d="M330.571,96.423h3.747v19.961h-3.747V96.423L330.571,96.423z
		 M337.613,110.82c-0.83,0-1.546-0.213-2.147-0.637c-0.601-0.424-1.048-1.022-1.339-1.798l0.191-3.24
		c0,0.466,0.082,0.861,0.246,1.189s0.403,0.579,0.718,0.752c0.314,0.174,0.694,0.26,1.142,0.26c0.701,0,1.246-0.232,1.633-0.697
		c0.388-0.464,0.582-1.121,0.582-1.969v-2.256c0-0.866-0.194-1.538-0.582-2.017c-0.387-0.479-0.932-0.718-1.633-0.718
		c-0.447,0-0.827,0.089-1.142,0.267s-0.554,0.436-0.718,0.772s-0.246,0.748-0.246,1.231l-0.288-3.146
		c0.384-0.829,0.887-1.47,1.511-1.921c0.625-0.451,1.315-0.676,2.072-0.676c1.002,0,1.861,0.241,2.576,0.724
		c0.717,0.483,1.261,1.189,1.635,2.119c0.373,0.93,0.56,2.047,0.56,3.35v2.27c0,1.295-0.187,2.399-0.56,3.315
		c-0.374,0.916-0.918,1.616-1.635,2.099C339.475,110.578,338.615,110.82,337.613,110.82L337.613,110.82z"/>
	<path fill-rule="evenodd" clip-rule="evenodd" fill="#1A171B" d="M350.965,110.82c-1.294,0-2.399-0.242-3.315-0.726
		c-0.916-0.482-1.613-1.187-2.091-2.112c-0.479-0.925-0.719-2.039-0.719-3.342v-2.312c0-1.285,0.239-2.386,0.719-3.302
		c0.478-0.916,1.175-1.613,2.091-2.092s2.021-0.717,3.315-0.717c1.295,0,2.399,0.238,3.315,0.717s1.613,1.176,2.092,2.092
		s0.718,2.017,0.718,3.302v2.352c0,1.295-0.239,2.399-0.718,3.315s-1.176,1.616-2.092,2.099
		C353.364,110.578,352.26,110.82,350.965,110.82L350.965,110.82z M350.951,107.211c0.757,0,1.345-0.222,1.764-0.664
		c0.42-0.441,0.629-1.064,0.629-1.866v-2.352c0-0.793-0.209-1.408-0.629-1.845c-0.419-0.438-1.007-0.656-1.764-0.656
		c-0.747,0-1.328,0.218-1.743,0.656c-0.415,0.437-0.622,1.052-0.622,1.845v2.352c0,0.802,0.205,1.425,0.615,1.866
		C349.611,106.989,350.195,107.211,350.951,107.211L350.951,107.211z"/>
	<path fill-rule="evenodd" clip-rule="evenodd" fill="#1A171B" d="M359.929,90.735h3.746v19.879h-3.746V90.735L359.929,90.735z
		 M368.132,102.016c0-0.693-0.198-1.231-0.595-1.613c-0.396-0.383-0.96-0.574-1.688-0.574c-0.693,0-1.229,0.193-1.606,0.58
		c-0.378,0.388-0.567,0.933-0.567,1.634l-0.287-3.145c0.429-0.893,0.94-1.563,1.538-2.01c0.597-0.446,1.347-0.669,2.249-0.669
		c1.495,0,2.652,0.503,3.473,1.51c0.82,1.008,1.23,2.432,1.23,4.272v8.613h-3.746V102.016L368.132,102.016z"/>
	<path fill-rule="evenodd" clip-rule="evenodd" fill="#1A171B" d="M380.716,110.82c-1.295,0-2.4-0.242-3.316-0.726
		c-0.915-0.482-1.612-1.187-2.092-2.112c-0.479-0.925-0.717-2.039-0.717-3.342v-2.312c0-1.285,0.238-2.386,0.717-3.302
		c0.479-0.916,1.177-1.613,2.092-2.092c0.916-0.479,2.021-0.717,3.316-0.717c1.294,0,2.398,0.238,3.314,0.717
		s1.613,1.176,2.093,2.092c0.479,0.916,0.718,2.017,0.718,3.302v2.352c0,1.295-0.239,2.399-0.718,3.315
		c-0.479,0.916-1.177,1.616-2.093,2.099C383.114,110.578,382.01,110.82,380.716,110.82L380.716,110.82z M380.701,107.211
		c0.757,0,1.345-0.222,1.764-0.664c0.42-0.441,0.629-1.064,0.629-1.866v-2.352c0-0.793-0.209-1.408-0.629-1.845
		c-0.419-0.438-1.007-0.656-1.764-0.656c-0.747,0-1.328,0.218-1.743,0.656c-0.414,0.437-0.622,1.052-0.622,1.845v2.352
		c0,0.802,0.205,1.425,0.615,1.866C379.361,106.989,379.945,107.211,380.701,107.211L380.701,107.211z"/>
	<path fill-rule="evenodd" clip-rule="evenodd" fill="#1A171B" d="M389.679,96.423h3.746v14.191h-3.746V96.423L389.679,96.423z
		 M397.882,102.016c0-0.693-0.198-1.231-0.595-1.613c-0.396-0.383-0.96-0.574-1.688-0.574c-0.692,0-1.229,0.193-1.606,0.58
		c-0.378,0.388-0.567,0.933-0.567,1.634l-0.287-3.145c0.429-0.893,0.941-1.563,1.538-2.01c0.597-0.446,1.347-0.669,2.249-0.669
		c1.495,0,2.652,0.503,3.473,1.51c0.82,1.008,1.23,2.432,1.23,4.272v8.613h-3.746V102.016L397.882,102.016z"/>
	<path fill="#1A171B" d="M403.247,96.423h3.527l3.209,8.297l2.848-8.297h3.526l-6.315,17.515c-0.237,0.646-0.531,1.159-0.883,1.537
		c-0.351,0.379-0.783,0.649-1.298,0.813c-0.516,0.164-1.151,0.246-1.907,0.246h-0.834v-3.637h0.834c0.4,0,0.735-0.089,1.005-0.267
		c0.269-0.178,0.472-0.467,0.608-0.868l0.756-2.203L403.247,96.423L403.247,96.423z"/>
</g>
</svg>
